 <svg version="1.0" xmlns="http://www.w3.org/2000/svg"
      width="230.000000pt" height="63.000000pt" viewBox="0 0 230.000000 63.000000"
      preserveAspectRatio="xMidYMid meet">
      <g transform="translate(0.000000,63.000000) scale(0.100000,-0.100000)"
         fill="#000000" stroke="none">
        <path d="M945 610 c-49 -10 -126 -31 -171 -48 -118 -43 -361 -160 -419 -201
        -27 -20 -63 -43 -79 -51 -40 -21 -161 -126 -224 -194 -81 -90 -66 -128 45
        -112 71 10 432 102 593 152 193 60 357 100 477 115 123 16 609 16 748 0 130
        -15 218 -33 222 -46 2 -5 -20 -23 -47 -38 -51 -29 -68 -54 -27 -41 30 9 89 47
        106 68 20 24 5 34 -75 51 -123 25 -282 36 -554 38 -348 2 -488 -18 -815 -118
        -413 -126 -679 -179 -693 -138 -8 26 184 207 295 276 89 56 242 137 333 175
        122 51 177 68 275 87 170 32 225 14 225 -76 0 -89 -60 -176 -133 -194 -34 -9
        -52 5 -63 48 l-8 32 -3 -37 c-6 -55 10 -78 55 -78 104 0 204 162 172 280 -9
        33 -18 44 -45 56 -43 18 -78 17 -190 -6z"/>
        <path d="M593 407 c-40 -44 -133 -190 -133 -208 0 -31 13 -22 44 30 16 27 44
        66 63 86 l34 38 33 -32 c53 -51 77 -38 31 17 -14 17 -25 39 -25 50 0 35 -24
        45 -47 19z"/>
        <path d="M757 368 c-28 -38 -50 -98 -37 -98 5 0 17 12 26 28 9 15 25 39 35 54
        37 54 15 68 -24 16z"/>
        <path d="M2000 362 c0 -14 23 -32 42 -32 21 0 23 11 6 28 -13 13 -48 16 -48 4z"/>
        <path d="M2260 286 c0 -31 14 -40 30 -21 15 18 6 45 -15 45 -9 0 -15 -9 -15
        -24z"/>
      </g>
    </svg>